# xmcd
#
# Track frame offsets:
#	183
#	11483
#	21988
#	34735
#	44163
#	55090
#	68428
#	81930
#	92250
#	103893
#	113108
#	124953
#
# Disc length: 1815 seconds
#
# Revision: 0
# Processed by: cddbd v1.4PL0 Copyright (c) Steve Scherf et al.
# Submitted via: EasyCDDAExtractor 4.5.0.2
#
DISCID=9907150c
DTITLE=Patsy Cline - Country Blues
DYEAR=1900
DGENRE=Blues
TTITLE0=I Cried All The Way To The Alter
TTITLE1=Pick Me Up On Your Way Down
TTITLE2=Fingerprints
TTITLE3=Love Me, Love Me Honey Do
TTITLE4=Honky Tonk Merry Go Round
TTITLE5=If I Could See The World
TTITLE6=Life's Railway To Heaven
TTITLE7=Turn The Cards Slowly
TTITLE8=Cry Not For Me
TTITLE9=Try Again
TTITLE10=I've Loved And Lost Again
TTITLE11=The Heart You Break May Be Your Own
EXTD=
EXTT0=
EXTT1=
EXTT2=
EXTT3=
EXTT4=
EXTT5=
EXTT6=
EXTT7=
EXTT8=
EXTT9=
EXTT10=
EXTT11=
PLAYORDER=
